<?xml version="1.0" encoding="utf-8"?>
<!-- Generator: Adobe Illustrator 21.0.0, SVG Export Plug-In . SVG Version: 6.00 Build 0)  -->
<svg version="1.1" id="Layer_1" xmlns="http://www.w3.org/2000/svg" xmlns:xlink="http://www.w3.org/1999/xlink" x="0px" y="0px"
	 viewBox="0 0 62.5 52.8" style="enable-background:new 0 0 62.5 52.8;" xml:space="preserve">
<style type="text/css">
	.st0{fill:#FFFFFF;}
</style>
<g>
	<path class="st0" d="M24.5,37.3c1.1-1.1,2.3-2,3.8-2.5c2.7-0.7,5,0.1,7.1,1.8c1.4,1.2,2.9,2.3,4.8,2.7c2.6,0.5,4.7-0.4,6.5-2.1
		c0.2-0.2,0.2-0.6,0.1-0.9c-2.6-15.7-11.5-26.6-26-32.9C18.9,2.6,17,2,15,1.4c-1.7-0.5-2.6,0.3-2.3,2.1c0.5,2.3,1.2,4.7,1.8,7
		c1.1,3.8,2,7.7,2.2,11.7c0.3,5.1-0.6,10.1-2.9,14.7C16.8,39.8,21.1,40.6,24.5,37.3z M58.6,45.2c-2.4-2.6-7.2-4.2-11.2-1.1
		c-0.4,0.3-0.9,0.7-1.3,1.1c-3,2.9-6.4,2.8-9.5,0c-1.6-1.5-3.5-2.5-5.6-2.7c-2.5-0.3-4.6,0.6-6.4,2.3c-0.4,0.4-0.8,0.8-1.2,1.1
		c-2.8,2.2-5.9,2-8.7-0.6c-1.9-1.8-4.1-2.9-6.8-2.8c-2.3,0.1-4.2,1.1-5.9,2.8c0.5,0.5,1,1,1.6,1.5c0,0,0.2-0.1,0.2-0.2
		c2.8-2.5,6.2-2.5,9,0.1c1.3,1.2,2.7,2.1,4.3,2.6c2.7,0.8,5.1,0.3,7.3-1.4c0.5-0.3,0.9-0.7,1.3-1.1c2.9-2.7,6.3-2.7,9.2,0
		c1.4,1.3,3.1,2.3,5,2.7c2.6,0.6,4.8-0.2,6.8-1.8c0.4-0.3,0.8-0.7,1.2-1c2.4-2.3,5.4-2.5,8.2-0.6c0.3,0.2,0.7,0.5,1,0.8
		C57.6,46.1,58.1,45.7,58.6,45.2z M3.6,41.7c0.5-0.4,1-0.8,1.6-1.2c2.3-1.4,5.1-1,7.4,0.8c1,0.8,2.1,1.7,3.3,2.3
		c3.1,1.6,6.5,1.1,9.2-1.3c0.5-0.4,1-0.9,1.5-1.3c2.6-2,5.8-1.8,8.4,0.6c1.3,1.2,2.8,2.1,4.5,2.6c2.9,0.8,5.4,0,7.6-1.9
		c0.5-0.5,1-1,1.6-1.4c2.4-1.9,5.5-1.7,8.1,0.4c0.1,0.1,0.3,0.2,0.4,0.4c0.5-0.5,1-1,1.5-1.6c-1.6-1.5-3.4-2.4-5.6-2.7
		c-2.6-0.2-4.7,0.7-6.5,2.4c-1.3,1.3-2.8,2.3-4.7,2.4c-2,0.1-3.7-0.9-5.1-2.2c-1.7-1.5-3.6-2.5-5.9-2.7c-2.4-0.2-4.5,0.7-6.2,2.4
		c-1.1,1-2.3,2-3.8,2.4c-2.5,0.5-4.4-0.5-6.2-2.1c-1.2-1.1-2.6-1.9-4.1-2.3c-2.9-0.8-6.3,0.2-8.2,2.5C2.7,40.7,3.2,41.2,3.6,41.7z"
		/>
	<path d="M13.9,37c3,2.8,7.3,3.6,10.7,0.3c1.1-1.1,2.3-2,3.8-2.5c2.7-0.7,5,0.1,7.1,1.8c1.4,1.2,2.9,2.3,4.8,2.7
		c2.6,0.5,4.7-0.4,6.5-2.1c0.2-0.2,0.2-0.6,0.1-0.9c-2.6-15.7-11.5-26.6-26-32.9C18.9,2.6,17,2,15,1.4c-1.7-0.5-2.6,0.3-2.3,2.1
		c0.5,2.3,1.2,4.7,1.8,7c1.1,3.8,2,7.7,2.2,11.7C17.1,27.4,16.2,32.3,13.9,37z"/>
	<path d="M57.1,46.6c0.5-0.5,1-1,1.5-1.4c-2.4-2.6-7.2-4.2-11.2-1.1c-0.4,0.3-0.9,0.7-1.3,1.1c-3,2.9-6.4,2.8-9.5,0
		c-1.6-1.5-3.5-2.5-5.6-2.7c-2.5-0.3-4.6,0.6-6.4,2.3c-0.4,0.4-0.8,0.8-1.2,1.1c-2.8,2.2-5.9,2-8.7-0.6c-1.9-1.8-4.1-2.9-6.8-2.8
		c-2.3,0.1-4.2,1.1-5.9,2.8c0.5,0.5,1,1,1.6,1.5c0,0,0.2-0.1,0.2-0.2c2.8-2.5,6.2-2.5,9,0.1c1.3,1.2,2.7,2.1,4.3,2.6
		c2.7,0.8,5.1,0.3,7.3-1.4c0.5-0.3,0.9-0.7,1.3-1.1c2.9-2.7,6.3-2.7,9.2,0c1.4,1.3,3.1,2.3,5,2.7c2.6,0.6,4.8-0.2,6.8-1.8
		c0.4-0.3,0.8-0.7,1.2-1c2.4-2.3,5.4-2.5,8.2-0.6C56.4,46.1,56.7,46.4,57.1,46.6z"/>
	<path d="M2.2,40.2c0.5,0.5,1,1,1.5,1.5c0.5-0.4,1-0.8,1.6-1.2c2.3-1.4,5.1-1,7.4,0.8c1,0.8,2.1,1.7,3.3,2.3
		c3.1,1.6,6.5,1.1,9.2-1.3c0.5-0.4,1-0.9,1.5-1.3c2.6-2,5.8-1.8,8.4,0.6c1.3,1.2,2.8,2.1,4.5,2.6c2.9,0.8,5.4,0,7.6-1.9
		c0.5-0.5,1-1,1.6-1.4c2.4-1.9,5.5-1.7,8.1,0.4c0.1,0.1,0.3,0.2,0.4,0.4c0.5-0.5,1-1,1.5-1.6c-1.6-1.5-3.4-2.4-5.6-2.7
		c-2.6-0.2-4.7,0.7-6.5,2.4c-1.3,1.3-2.8,2.3-4.7,2.4c-2,0.1-3.7-0.9-5.1-2.2c-1.7-1.5-3.6-2.5-5.9-2.7c-2.4-0.2-4.5,0.7-6.2,2.4
		c-1.1,1-2.3,2-3.8,2.4c-2.5,0.5-4.4-0.5-6.2-2.1c-1.2-1.1-2.6-1.9-4.1-2.3C7.5,36.9,4.1,38,2.2,40.2z"/>
</g>
</svg>
